# xmcd
#
# Track frame offsets: 
#        150
#        15920
#        32678
#        46273
#        61825
#        78113
#        94980
#        109828
#        121865
#        141568
#
# Disc length: 2087 seconds
#
# Revision: 3
# Processed by: cddbd v1.5.2PL0 Copyright (c) Steve Scherf et al.
# Submitted via: ExactAudioCopy v1.1
#
DISCID=7708250a
DTITLE=Kathy Mattea - Walking Away A Winner
DYEAR=1994
DGENRE=Country
TTITLE0=Walking Away A Winner
TTITLE1=The Street Of Your Town
TTITLE2=Maybe She's Human
TTITLE3=Clown In Your Rodeo
TTITLE4=Who Turned Out The Light
TTITLE5=Nobody's Gonna Rain On Our Parade
TTITLE6=Another Man
TTITLE7=The Cape
TTITLE8=Grand Canyon
TTITLE9=Who's Gonna Know
EXTD=
EXTT0=
EXTT1=
EXTT2=
EXTT3=
EXTT4=
EXTT5=
EXTT6=
EXTT7=
EXTT8=
EXTT9=
PLAYORDER=
